<svg xmlns="http://www.w3.org/2000/svg" width="400" height="100" fill="none">
  <!-- Star/Icon part -->
  
  <!-- Text "Mahesh" with same gradient as circle -->
  <path fill="url(#b)" d="M0 0 C8.42909228 -1.04947196 8.42909228 -1.04947196 11.859375 1.2421875 C18.71813495 8.9140994 20.06761364 16.74375001 21 27 C59.61 27 98.22 27 138 27 C135.68365489 15.55778241 135.68365489 15.55778241 130.20703125 6.70703125 C129 5 129 5 129 3 C127.02 2.01 127.02 2.01 125 1 C125 0.67 125 0.34 125 0 C129.34511822 -0.62947387 133.30537873 -1.13504652 137.08203125 1.39453125 C144.09261342 8.89386861 146 16.95197977 146 27 C156.56 27 167.12 27 178 27 C178 28.65 178 30.3 178 32 C167.44 32 156.88 32 146 32 C146.33 35.3 146.66 38.6 147 42 C147.94875 41.175 148.8975 40.35 149.875 39.5 C153.77264262 36.72500495 156.91540971 36.32020827 161.63671875 36.578125 C166.38713772 37.42613368 169.07328806 39.99606207 172.25 43.4375 C175.65271446 48.42004617 176.89238825 52.95406961 176 59 C174.07545889 64.92671183 170.97556313 68.38140863 166 72 C163.03 70.02 163.03 70.02 160 68 C161.20936543 65.2514422 162.71260085 63.08643332 164.5625 60.75 C167.42870612 56.79836671 167.92141124 53.87250341 168 49 C167.09108722 45.78384707 166.35959872 44.35959872 164 42 C158.88261574 42.10034087 155.65096799 43.51018825 151.578125 46.35546875 C146.91989068 51.20971788 146.50130472 56.50958379 146.3125 62.875 C146.27833984 63.65875 146.24417969 64.4425 146.20898438 65.25 C146.12719588 67.16618748 146.0619054 69.08306715 146 71 C140.25 69.125 140.25 69.125 138 68 C138 56.12 138 44.24 138 32 C135.69 32 133.38 32 131 32 C131 37.28 131 42.56 131 48 C129.329375 47.505 127.65875 47.01 125.9375 46.5 C118.394743 44.47703835 111.02004807 43.96271913 104 48 C103.18224462 50.03781163 103.18224462 50.03781163 103 52 C104.258125 51.855625 105.51625 51.71125 106.8125 51.5625 C107.52019531 51.48128906 108.22789062 51.40007813 108.95703125 51.31640625 C111.19396393 51.02829265 111.19396393 51.02829265 114 50 C125.31205067 49.00427837 125.31205067 49.00427837 129.6875 51.875 C132.36434509 54.3348036 132.88869404 55.18375631 133.375 58.75 C132.88754848 62.97457988 131.10031356 65.26804052 128 68 C125.72066203 69.52583781 123.45203335 70.74994378 121 72 C121.928125 72.226875 122.85625 72.45375 123.8125 72.6875 C127.52942635 74.21799908 128.37907396 75.39794214 130 79 C130 79.66 130 80.32 130 81 C126.52085392 81.56702381 123.45797552 81.76900487 120 81 C117.93938997 78.87055958 116.48183972 76.59739293 114.85546875 74.125 C112.09494036 70.96346854 109.38389562 70.75863049 105.33203125 70.4140625 C102.4799627 69.90766507 101.07189744 69.00582326 99 67 C98.75 63.8125 98.75 63.8125 99 61 C103.36231785 59.62242594 105.79218958 60.16859494 109.8125 62 C116.97533223 65.12364112 122.8533082 63.74872762 130 61 C130 59.68 130 58.36 130 57 C124.66659209 57.43963015 119.53852713 58.07740111 114.3125 59.25 C109.05666279 60.22990185 106.49964521 59.93854381 102 57 C99.11445238 53.81849878 97.7350384 51.17795223 97.375 46.9375 C98.09393776 42.40819211 98.09393776 42.40819211 100.8125 40.0625 C105.4844625 37.03946544 109.10362551 36.84416357 114.5 36.875 C115.17675781 36.87113281 115.85351562 36.86726563 116.55078125 36.86328125 C119.64073767 36.86937584 122.04679311 37.0155977 125 38 C125 36.02 125 34.04 125 32 C111.47 32 97.94 32 84 32 C84 34.64 84 37.28 84 40 C84.99 40 85.98 40 87 40 C87 41.98 87 43.96 87 46 C85.90300781 45.96519531 84.80601562 45.93039063 83.67578125 45.89453125 C82.22136955 45.86638135 80.7669412 45.83908248 79.3125 45.8125 C78.59126953 45.78736328 77.87003906 45.76222656 77.12695312 45.73632812 C72.56648162 45.67385591 69.58020538 46.08358024 66 49 C66 49.66 66 50.32 66 51 C70.29 51.66 74.58 52.32 79 53 C79 54.32 79 55.64 79 57 C78.16855469 57.12117188 77.33710938 57.24234375 76.48046875 57.3671875 C75.39378906 57.53476562 74.30710938 57.70234375 73.1875 57.875 C72.10855469 58.03742187 71.02960938 58.19984375 69.91796875 58.3671875 C66.82678207 58.85132338 66.82678207 58.85132338 64 61 C64.34786708 62.97536745 64.34786708 62.97536745 65 65 C68.92972233 66.96486116 73.7067117 66.33493739 78 66 C82.8603347 64.25761586 88.61872893 60.76254213 91 56 C91.66 56 92.32 56 93 56 C93 59.63 93 63.26 93 67 C82.71672974 71.91141266 72.97208987 72.684236 62.09765625 68.91796875 C58.46991816 67.33041111 55.83640013 65.62052526 54 62.0625 C54 58.31249977 56.22106585 55.83663298 58.6875 53.1875 C59.120625 52.795625 59.55375 52.40375 60 52 C59.484375 51.62875 58.96875 51.2575 58.4375 50.875 C57 49 57 49 56.8125 46.0625 C58.08577663 42.7787866 58.45764828 42.32888475 61.375 40.6875 C66.40095228 38.48521909 71.5723614 38.19954554 77 38 C77 36.02 77 34.04 77 32 C58.52 32 40.04 32 21 32 C21.495 36.95 21.495 36.95 22 42 C22.78375 41.360625 23.5675 40.72125 24.375 40.0625 C29.08440065 36.36225663 33.13972041 36.35086134 39 37 C43.38615811 39.19307906 46.48845033 41.78418447 49 46 C50.90783434 51.97725439 51.79698802 57.31451493 49.13671875 63.140625 C47.12999541 66.42310028 44.66612777 69.23896154 42 72 C38.57440916 70.79641403 36.46741391 69.64107354 34 67 C34.49371094 66.37351562 34.98742187 65.74703125 35.49609375 65.1015625 C36.13675781 64.28429687 36.77742188 63.46703125 37.4375 62.625 C38.07558594 61.81289063 38.71367187 61.00078125 39.37109375 60.1640625 C42.72202221 55.71222948 42.62089884 51.43067855 42 46 C40.59912251 43.1786663 40.59912251 43.1786663 38 42 C33.02104444 42 29.81833931 43.92872707 26 47 C21.78618064 52.05503971 21.3607177 56.06409136 21.25 62.375 C21.20552734 63.62216797 21.20552734 63.62216797 21.16015625 64.89453125 C21.08999601 66.92917827 21.04267105 68.96459091 21 71 C17.92463146 70.34099246 15.92264434 69.46132217 13 68 C13 56.12 13 44.24 13 32 C3.1 32 -6.8 32 -17 32 C-17 33.98 -17 35.96 -17 38 C-16.01 37.67 -15.02 37.34 -14 37 C-11.8783532 36.85445167 -9.75143294 36.77919588 -7.625 36.75 C-6.50351563 36.72421875 -5.38203125 36.6984375 -4.2265625 36.671875 C-0.52918209 37.04787979 1.16314258 37.60183187 4 40 C7.81878613 46.17135719 7.35141587 52.35549373 7.1875 59.4375 C7.16719727 61.1071582 7.16719727 61.1071582 7.14648438 62.81054688 C7.11132997 65.54087212 7.06212106 68.27017744 7 71 C3.87709365 70.51421457 1.00419641 70.0013988 -2 69 C-2.825 69.309375 -3.65 69.61875 -4.5 69.9375 C-10.54286565 71.77194136 -16.53544161 71.88019943 -22.5 69.75 C-25.0968758 67.93218694 -26.58240352 66.83519296 -28 64 C-28.58561544 60.55137573 -28.67519126 58.20446207 -26.93359375 55.09765625 C-23.4026272 50.5468465 -19.64452025 48.12890405 -14 47 C-8.91639456 46.47293723 -4.62865381 46.61101739 0 49 C-0.495 47.02 -0.495 47.02 -1 45 C-7.83121208 43.77008546 -13.03942946 44.18675219 -19.65234375 46.30859375 C-22 47 -22 47 -25 47 C-25 45.68 -25 44.36 -25 43 C-24.34 43 -23.68 43 -23 43 C-23 39.37 -23 35.74 -23 32 C-29.27 32 -35.54 32 -42 32 C-42 33.98 -42 35.96 -42 38 C-41.0925 38.20625 -40.185 38.4125 -39.25 38.625 C-34.95734544 40.44112308 -33.91166089 41.7355257 -32 46 C-30.9897422 52.72246313 -31.22597806 58.6290246 -35.2890625 64.2421875 C-38.42534643 67.46439701 -42.12020711 69.76848514 -46 72 C-49.83902629 69.66320139 -52.20953589 68.13718891 -54 64 C-53.41992188 63.75765625 -52.83984375 63.5153125 -52.2421875 63.265625 C-43.52373609 59.66850537 -43.52373609 59.66850537 -37.0625 53.0625 C-35.92646164 49.78803649 -35.94773198 48.25246478 -37 45 C-42.49702643 42.98068417 -45.32704977 42.92719126 -51 45 C-51.99 45.33 -52.98 45.66 -54 46 C-55.07254351 48.26225382 -55.07254351 48.26225382 -56 51 C-56.98482022 53.00751815 -57.98152514 55.00934459 -59 57 C-62.34373475 56.44271087 -65.03312999 55.64826111 -68 54 C-66.125 46.25 -66.125 46.25 -65 44 C-71.7851732 43.64027518 -71.7851732 43.64027518 -78 46 C-80.33025389 49.88375648 -80.46811197 53.55293627 -80 58 C-77.30077489 63.18251222 -73.1973088 67.01491468 -69 71 C-69.99 71.495 -69.99 71.495 -71 72 C-78.44497273 69.38677374 -85.06385263 64.89686323 -89.1640625 58.05859375 C-90.64790649 54.40445457 -90.52475401 50.86837894 -90 47 C-87.83981986 42.2296022 -85.03007684 39.78317918 -80.34765625 37.69140625 C-75.92060206 36.38759828 -71.55154176 36.36588427 -67 37 C-66.01 37.556875 -65.02 38.11375 -64 38.6875 C-59.13469586 40.81607056 -54.8407937 38.67963482 -50 37 C-50 35.35 -50 33.7 -50 32 C-63.53 32 -77.06 32 -91 32 C-91 30.35 -91 28.7 -91 27 C-56.68 27 -22.36 27 13 27 C10.164483 15.657932 7.52341042 8.38322875 0 0 Z M-23.9375 60.0625 C-24.288125 60.701875 -24.63875 61.34125 -25 62 C-24.67 62.99 -24.34 63.98 -24 65 C-16.15105986 66.56978803 -10.27140423 65.16466164 -3.4375 61 C-2.633125 60.34 -1.82875 59.68 -1 59 C-1 58.01 -1 57.02 -1 56 C-9.16183368 51.2101915 -17.73343051 53.45816796 -23.9375 60.0625 Z" transform="translate(120,15)"/>

  <!-- Gradients -->
  <defs>
    <linearGradient id="b" x1="45.833" x2="45.833" y1="131" y2="33.173" gradientUnits="userSpaceOnUse">
      <stop offset="0" stop-color="#000000"/>
      <stop offset="1" stop-color="#C4C1C1"/>
    </linearGradient>
  </defs>
</svg>